<?xml version="1.0" encoding="UTF-8" standalone="no"?>
<!-- Created with Inkscape (http://www.inkscape.org/) -->

<svg
   xmlns:dc="http://purl.org/dc/elements/1.1/"
   xmlns:cc="http://creativecommons.org/ns#"
   xmlns:rdf="http://www.w3.org/1999/02/22-rdf-syntax-ns#"
   xmlns:svg="http://www.w3.org/2000/svg"
   xmlns="http://www.w3.org/2000/svg"
   xmlns:sodipodi="http://sodipodi.sourceforge.net/DTD/sodipodi-0.dtd"
   xmlns:inkscape="http://www.inkscape.org/namespaces/inkscape"
   width="210mm"
   height="297mm"
   viewBox="0 0 210 297"
   version="1.1"
   id="svg8"
   inkscape:version="0.92.5 (2060ec1f9f, 2020-04-08)"
   sodipodi:docname="logo.svg">
  <defs
     id="defs2" />
  <sodipodi:namedview
     id="base"
     pagecolor="#ffffff"
     bordercolor="#666666"
     borderopacity="1.0"
     inkscape:pageopacity="0.0"
     inkscape:pageshadow="2"
     inkscape:zoom="0.35"
     inkscape:cx="400"
     inkscape:cy="560"
     inkscape:document-units="mm"
     inkscape:current-layer="layer1"
     showgrid="false"
     inkscape:window-width="1600"
     inkscape:window-height="837"
     inkscape:window-x="-8"
     inkscape:window-y="-8"
     inkscape:window-maximized="1" />
  <metadata
     id="metadata5">
    <rdf:RDF>
      <cc:Work
         rdf:about="">
        <dc:format>image/svg+xml</dc:format>
        <dc:type
           rdf:resource="http://purl.org/dc/dcmitype/StillImage" />
        <dc:title></dc:title>
      </cc:Work>
    </rdf:RDF>
  </metadata>
  <g
     inkscape:label="Calque 1"
     inkscape:groupmode="layer"
     id="layer1">
    <g
       id="layer1-9"
       inkscape:label="Calque 1"
       transform="matrix(3.5660376,0,0,3.3909776,-262.30124,-327.44639)">
      <g
         transform="translate(-0.75595205,-18.142853)"
         id="g3724">
        <path
           inkscape:connector-curvature="0"
           id="path3740"
           d="m 68.508194,157.1488 v -25.13542 h 35.057296 35.05729 v 25.13542 25.13541 H 103.56549 68.508194 Z"
           style="fill:#fdfdfd;stroke-width:0.26458335" />
        <path
           inkscape:connector-curvature="0"
           id="path3738"
           d="m 98.35515,177.77666 c -7.495845,-1.84324 -13.240095,-7.29867 -15.600727,-14.81635 -0.531206,-1.69169 -0.620187,-2.52549 -0.620187,-5.81151 0,-3.28603 0.08898,-4.11983 0.620187,-5.81151 2.196024,-6.99347 7.235014,-12.11971 14.19648,-14.4423 2.567708,-0.85667 7.661947,-1.17643 10.597667,-0.6652 6.40843,1.11598 12.48624,5.66513 15.41197,11.53562 1.62429,3.25916 2.0362,5.15733 2.0362,9.38339 0,3.28602 -0.089,4.11982 -0.62019,5.81151 -2.38008,7.57962 -8.13934,13.01123 -15.72421,14.82966 -2.88672,0.69207 -7.45262,0.68617 -10.29719,-0.0133 z m 8.299,-6.19462 c 4.7947,-1.01621 8.89557,-4.58208 10.70255,-9.3063 0.9167,-2.39665 1.13497,-6.0459 0.5185,-8.66885 -1.57479,-6.70041 -7.47104,-11.38849 -14.30971,-11.37759 -4.149593,0.007 -7.516395,1.40782 -10.489579,4.36557 -2.857613,2.84279 -4.28629,6.43241 -4.240122,10.65353 0.04256,3.89148 1.346388,7.16886 3.986951,10.02183 3.474746,3.75427 8.73091,5.39282 13.83141,4.31181 z m -5.93293,-6.25235 c -0.39332,-0.22909 -0.46302,-0.67796 -0.46302,-2.98175 0,-1.7566 0.11185,-2.82392 0.3175,-3.02956 0.33235,-0.33235 4.82924,-0.45803 5.61398,-0.1569 0.62182,0.23861 0.62182,6.05477 0,6.29338 -0.68764,0.26387 -4.96876,0.16588 -5.46846,-0.12517 z m 0,-10.05417 c -0.39629,-0.23082 -0.46302,-0.68654 -0.46302,-3.16191 0,-3.41311 -0.21425,-3.2331 3.70416,-3.11217 l 2.51354,0.0776 0.0743,3.07588 c 0.0726,3.00718 0.0608,3.07948 -0.52916,3.23753 -0.97427,0.26101 -4.79568,0.17672 -5.29978,-0.11689 z"
           style="fill:#efcdd4;stroke-width:0.26458335" />
        <path
           inkscape:connector-curvature="0"
           id="path3736"
           d="m 100.40078,178.0389 c -5.998394,-0.9414 -11.364347,-4.30742 -14.669614,-9.20214 -2.452666,-3.63212 -3.516032,-7.16695 -3.516032,-11.68796 0,-8.06625 4.212101,-14.91129 11.488365,-18.66963 3.429044,-1.77118 5.703301,-2.30205 9.861991,-2.30205 4.15868,0 6.43294,0.53087 9.86199,2.30205 7.27626,3.75834 11.48836,10.60338 11.48836,18.66963 0,4.87228 -1.34503,8.87141 -4.2914,12.75941 -2.62756,3.4673 -7.26509,6.5297 -11.54637,7.62467 -2.41218,0.61693 -6.46475,0.85326 -8.67729,0.50602 z m 7.26575,-6.50856 c 6.62638,-1.84676 11.25961,-8.53149 10.74953,-15.50922 -0.80858,-11.06121 -12.76124,-17.48253 -22.381888,-12.02421 -0.795245,0.45119 -2.164941,1.54111 -3.043771,2.42205 -5.583725,5.59714 -5.843168,14.77066 -0.5846,20.67064 3.822885,4.28918 9.684429,5.99484 15.260729,4.44074 z m -7.02991,-6.52902 c -0.0738,-0.19226 -0.0998,-1.53172 -0.0578,-2.97657 l 0.0763,-2.627 2.75649,-0.0759 c 2.02708,-0.0558 2.81365,0.0142 2.97251,0.26458 0.34737,0.5475 0.2696,5.08396 -0.0934,5.44694 -0.46425,0.46425 -5.47454,0.43583 -5.65408,-0.0321 z m 0,-10.05417 c -0.0738,-0.19226 -0.0998,-1.53171 -0.0578,-2.97656 l 0.0763,-2.627 2.75649,-0.0759 c 2.02708,-0.0558 2.81365,0.0142 2.97251,0.26459 0.34737,0.54749 0.2696,5.08395 -0.0934,5.44693 -0.46425,0.46425 -5.47454,0.43584 -5.65408,-0.0321 z"
           style="fill:#eabac4;stroke-width:0.26458335" />
        <path
           inkscape:connector-curvature="0"
           id="path3734"
           d="m 98.536663,177.54973 c -8.22147,-2.21997 -13.858911,-7.84535 -15.744642,-15.71096 -2.30693,-9.62248 2.829107,-19.77304 12.084082,-23.88227 6.311787,-2.80244 14.450557,-2.17562 20.295047,1.56306 10.03995,6.42247 12.74289,20.03166 5.88678,29.63964 -2.60788,3.65461 -6.29115,6.35168 -10.74557,7.86843 -2.27963,0.77623 -2.85825,0.86364 -6.21771,0.93927 -2.99543,0.0674 -4.05886,-0.0124 -5.557987,-0.41717 z m 8.710387,-5.84307 c 2.86877,-0.73371 4.4759,-1.67285 6.79225,-3.96914 3.06619,-3.03962 4.47515,-6.41503 4.47515,-10.72102 0,-8.45955 -6.6335,-15.07938 -15.08125,-15.05016 -4.312954,0.0149 -7.238386,1.24069 -10.327657,4.32733 -3.198689,3.19597 -4.56975,6.46614 -4.559233,10.87439 0.02351,9.85369 9.181288,16.97326 18.70074,14.5386 z m -6.40677,-6.67328 c -0.20366,-0.20366 -0.3175,-1.24536 -0.3175,-2.90538 0,-3.04544 -0.13832,-2.93251 3.43958,-2.80831 l 2.24896,0.0781 0.0759,2.75649 c 0.0558,2.02708 -0.0142,2.81365 -0.26458,2.97251 -0.54528,0.34597 -4.82003,0.26895 -5.18235,-0.0934 z m 0.11961,-10.0714 c -0.39081,-0.28577 -0.44659,-0.72115 -0.38129,-2.97656 l 0.0765,-2.64183 h 2.77813 2.77812 l 0.0759,2.75648 c 0.0558,2.02709 -0.0142,2.81365 -0.26458,2.97251 -0.55467,0.35193 -4.54954,0.26466 -5.06274,-0.1106 z"
           style="fill:#e39aa9;stroke-width:0.26458335" />
        <path
           inkscape:connector-curvature="0"
           id="path3732"
           d="m 100.00608,177.76797 c -4.157661,-0.74165 -8.434514,-2.93805 -11.35489,-5.83137 -2.573069,-2.54924 -4.104508,-4.96987 -5.220975,-8.25242 -4.101823,-12.05986 3.975945,-25.09605 16.827985,-27.1576 9.91393,-1.59026 19.85754,4.2261 23.24913,13.59924 4.12517,11.40045 -2.38662,23.79517 -14.2533,27.13013 -2.29904,0.64611 -7.02836,0.90795 -9.24795,0.51202 z m 6.99899,-5.85558 c 5.95174,-1.26918 10.65274,-6.51691 11.55532,-12.89921 0.88886,-6.28534 -2.51483,-12.72861 -8.25452,-15.62599 -8.69758,-4.39053 -19.098129,0.52149 -21.553073,10.17917 -1.176233,4.62727 0.259321,10.09402 3.617537,13.776 3.797744,4.16386 8.968076,5.77842 14.634736,4.57003 z m -6.31827,-7.2357 c -0.24011,-0.62569 -0.19257,-4.42741 0.0603,-4.82603 0.15832,-0.24953 0.91926,-0.32041 2.84022,-0.26458 l 2.62397,0.0763 v 2.64583 2.64583 l -2.68025,0.0751 c -2.2685,0.0635 -2.70545,0.009 -2.84427,-0.35237 z m 0,-10.05417 c -0.24011,-0.62569 -0.19257,-4.42741 0.0603,-4.82603 0.15832,-0.24952 0.91926,-0.32041 2.84022,-0.26458 l 2.62397,0.0763 v 2.64583 2.64584 l -2.68025,0.075 c -2.2685,0.0635 -2.70545,0.009 -2.84427,-0.35237 z"
           style="fill:#db7289;stroke-width:0.26458335" />
        <path
           inkscape:connector-curvature="0"
           id="path3730"
           d="m 101.4234,177.7653 c -3.592064,-0.34889 -6.558285,-1.43242 -9.812725,-3.58448 -3.767214,-2.49115 -6.489265,-6.05286 -8.117417,-10.62136 -0.786363,-2.20648 -0.82312,-2.49276 -0.82312,-6.41066 0,-3.91791 0.03676,-4.20418 0.82312,-6.41067 2.543102,-7.13579 8.183724,-12.18704 15.425481,-13.81371 2.563321,-0.57578 6.724701,-0.57755 9.276961,-0.004 6.87724,1.54562 12.58214,6.40451 15.06854,12.83396 1.08399,2.80305 1.42841,5.11612 1.27512,8.56349 -0.21336,4.79817 -2.01831,9.10492 -5.35715,12.78255 -1.55355,1.71118 -4.91432,4.10938 -7.0722,5.04661 -3.00397,1.30472 -7.26746,1.95032 -10.68661,1.61822 z m 6.79138,-6.03381 c 4.35692,-1.383 8.21542,-5.1837 9.77541,-9.62896 0.81023,-2.30879 0.99689,-6.35258 0.39964,-8.6579 -0.76597,-2.95655 -1.91691,-4.97132 -4.09812,-7.1739 -3.16747,-3.19851 -6.43957,-4.57476 -10.85851,-4.5671 -2.94944,0.005 -5.322337,0.66127 -7.781396,2.15173 -3.23131,1.95852 -5.954776,5.59466 -6.895472,9.20623 -0.535599,2.05631 -0.526322,6.22212 0.01798,8.07408 1.663391,5.65961 6.167126,9.86928 11.880758,11.10502 1.70233,0.36818 5.62888,0.1037 7.55971,-0.5092 z m -7.31056,-6.98687 c -0.0763,-0.19892 -0.10408,-1.4238 -0.0617,-2.72197 l 0.0771,-2.36031 h 2.51355 2.51354 v 2.64583 2.64583 l -2.45187,0.0761 c -1.88289,0.0585 -2.48407,-0.008 -2.59065,-0.28552 z m 0,-10.05417 c -0.0763,-0.19891 -0.10408,-1.4238 -0.0617,-2.72197 l 0.0771,-2.36031 2.58905,-0.0758 2.58906,-0.0758 -0.0755,2.72167 -0.0755,2.72168 -2.45187,0.0761 c -1.88289,0.0585 -2.48407,-0.008 -2.59065,-0.28552 z"
           style="fill:#d5526e;stroke-width:0.26458335" />
        <path
           inkscape:connector-curvature="0"
           id="path3728"
           d="m 100.38428,177.54301 c -12.864272,-2.06628 -20.714786,-14.75651 -16.6586,-26.92836 1.037995,-3.11483 2.547146,-5.47003 5.147772,-8.03365 2.633941,-2.59647 5.707058,-4.37588 9.195671,-5.32452 2.904327,-0.78976 8.088407,-0.78976 10.992727,0 6.66392,1.81208 12.22019,6.98668 14.34344,13.35817 3.76511,11.29836 -2.8216,23.41669 -14.34997,26.40131 -2.28013,0.59031 -6.6308,0.85476 -8.67104,0.52705 z m 6.75308,-5.35415 c 3.48169,-0.73954 7.62986,-3.82426 9.59964,-7.13862 1.57588,-2.65157 2.16275,-4.88856 2.14236,-8.16603 -0.0275,-4.4178 -1.41263,-7.70013 -4.58199,-10.85773 -2.95804,-2.94707 -6.64295,-4.4881 -10.73188,-4.4881 -4.282067,0 -7.689994,1.42524 -10.785791,4.51076 -3.35316,3.34203 -4.91982,7.39595 -4.626115,11.97063 0.475184,7.40136 6.146808,13.52139 13.425526,14.48696 1.56509,0.20762 3.64401,0.0887 5.55825,-0.31787 z m -6.23791,-7.72126 c -0.0747,-0.19477 -0.10077,-1.2961 -0.0578,-2.4474 l 0.078,-2.09328 2.57969,-0.0757 2.57969,-0.0757 v 2.52312 2.52312 h -2.52185 c -1.86222,0 -2.55738,-0.0926 -2.65773,-0.35411 z m 0.004,-10.04418 c -0.0768,-0.20026 -0.1046,-1.30608 -0.0617,-2.45739 l 0.078,-2.09328 2.58975,-0.0758 2.58974,-0.0759 -0.0762,2.4571 -0.0762,2.45709 -2.45187,0.0761 c -1.89059,0.0587 -2.48385,-0.007 -2.59159,-0.28797 z"
           style="fill:#ce294e;stroke-width:0.26458335" />
        <path
           inkscape:connector-curvature="0"
           id="path3726"
           d="m 99.332154,177.14701 c -8.471796,-1.95305 -14.480414,-8.01001 -16.154241,-16.2842 -0.525255,-2.59649 -0.405998,-6.29265 0.286301,-8.87339 1.865853,-6.9555 7.662773,-12.66401 14.809606,-14.58375 2.58176,-0.6935 8.00158,-0.6935 10.58333,0 7.14684,1.91974 12.94376,7.62825 14.80961,14.58375 1.48394,5.53183 0.31794,11.97441 -3.02999,16.74168 -2.54947,3.63031 -6.13812,6.25938 -10.58899,7.75756 -2.18776,0.7364 -2.9422,0.85762 -5.82083,0.9352 -2.17805,0.0587 -3.84934,-0.0358 -4.894796,-0.27685 z m 7.948056,-4.79039 c 2.47865,-0.6328 4.76906,-1.88952 6.66545,-3.65724 2.2523,-2.09948 3.62134,-4.23331 4.47715,-6.97818 0.61958,-1.9872 0.67356,-2.49889 0.55959,-5.30412 -0.0967,-2.38094 -0.26807,-3.47483 -0.73495,-4.69224 -3.4122,-8.89742 -13.13533,-12.87397 -21.585995,-8.82819 -2.599801,1.24466 -5.768293,4.42544 -7.080931,7.1084 -2.313629,4.72892 -2.278899,9.39025 0.106015,14.22867 1.953204,3.96258 5.663675,6.95848 10.04249,8.10849 1.930871,0.5071 5.593951,0.51409 7.551181,0.0144 z m -6.17242,-10.11459 0.0765,-2.31511 h 2.24896 2.24895 l 0.0765,2.31511 0.0764,2.3151 h -2.40185 -2.40186 z m 0,-10.05417 0.0765,-2.31511 h 2.24896 2.24895 l 0.0765,2.31511 0.0764,2.3151 h -2.40185 -2.40186 z"
           style="fill:#ca0132;stroke-width:0.26458335" />
      </g>
    </g>
  </g>
</svg>
